<?xml version="1.0" standalone="no"?>
<!DOCTYPE svg PUBLIC "-//W3C//DTD SVG 20010904//EN"
 "http://www.w3.org/TR/2001/REC-SVG-20010904/DTD/svg10.dtd">
<svg version="1.0" xmlns="http://www.w3.org/2000/svg"
 width="768.000000pt" height="768.000000pt" viewBox="0 0 768.000000 768.000000"
 preserveAspectRatio="xMidYMid meet">
<metadata>
Created by potrace 1.14, written by Peter Selinger 2001-2017
</metadata>
<g transform="translate(0.000000,768.000000) scale(0.100000,-0.100000)"
fill="#000000" stroke="none">
<path d="M1996 7523 c-1 -1 -17 -5 -36 -8 -60 -10 -78 -43 -115 -210 -2 -11
-9 -40 -16 -65 -6 -25 -13 -54 -15 -65 -6 -29 -10 -49 -34 -150 -12 -49 -23
-100 -25 -112 -1 -11 -6 -30 -9 -41 -4 -11 -9 -30 -11 -41 -3 -12 -7 -29 -9
-38 -17 -72 -28 -122 -32 -143 -3 -14 -8 -34 -11 -45 -8 -23 -7 -17 -18 -75
-10 -53 -12 -59 -15 -62 -2 -4 -12 -46 -24 -103 -2 -11 -9 -38 -15 -60 -6 -22
-12 -51 -15 -65 -2 -14 -5 -25 -6 -25 -1 0 -3 -9 -5 -20 -2 -11 -6 -31 -9 -45
-3 -14 -8 -34 -10 -45 -2 -11 -9 -40 -16 -65 -7 -25 -14 -56 -17 -70 -5 -31
-40 -182 -53 -230 -5 -19 -16 -64 -24 -100 -17 -75 -45 -196 -52 -225 -6 -23
-12 -51 -18 -80 -9 -44 -49 -212 -59 -250 -6 -22 -12 -46 -13 -54 -1 -7 -8
-34 -14 -60 -6 -25 -12 -55 -14 -66 -2 -11 -9 -40 -16 -65 -7 -25 -14 -56 -17
-70 -5 -26 -6 -31 -16 -70 -4 -14 -9 -36 -12 -50 -2 -14 -9 -43 -15 -65 -6
-22 -13 -51 -15 -65 -3 -14 -10 -47 -17 -75 -6 -27 -11 -52 -11 -55 0 -3 -3
-15 -8 -28 -5 -13 -11 -37 -14 -55 -3 -18 -8 -40 -11 -49 -5 -17 -12 -46 -20
-88 -3 -14 -10 -43 -16 -65 -5 -22 -12 -49 -14 -60 -2 -11 -7 -33 -11 -50 -8
-33 -7 -30 -17 -65 -4 -14 -9 -38 -11 -55 -2 -16 -4 -31 -6 -32 -1 -2 -2 -6
-4 -10 -1 -5 -5 -19 -9 -33 -4 -14 -8 -36 -10 -50 -1 -14 -5 -30 -8 -35 -3 -6
-9 -28 -13 -50 -5 -22 -9 -44 -11 -50 -7 -31 -54 -229 -59 -248 -5 -22 -19
-82 -29 -125 -3 -13 -7 -31 -10 -40 -3 -9 -7 -28 -10 -42 -4 -21 -18 -84 -31
-140 -2 -8 -16 -67 -31 -130 -30 -133 -29 -127 -37 -160 -10 -41 -44 -186 -77
-330 -68 -295 -80 -346 -90 -380 -5 -19 -11 -48 -14 -65 -3 -16 -12 -56 -21
-87 -8 -32 -17 -72 -20 -90 -3 -18 -11 -51 -17 -73 -6 -22 -13 -49 -15 -60 -4
-23 -24 -111 -54 -235 -11 -47 -22 -96 -25 -110 -3 -14 -10 -43 -16 -65 -5
-22 -12 -51 -15 -65 -4 -25 -21 -101 -29 -130 -6 -24 -45 -193 -49 -215 -2
-11 -9 -38 -14 -60 -6 -22 -20 -80 -32 -130 -20 -88 -23 -101 -35 -147 -3 -13
-6 -32 -8 -44 -2 -11 -5 -25 -8 -30 -4 -5 -9 -27 -12 -49 -4 -22 -11 -58 -17
-80 -6 -22 -11 -41 -11 -42 1 -2 -3 -16 -8 -31 l-8 -29 932 1 c915 1 931 1
957 21 30 22 57 67 63 105 3 14 5 26 7 28 1 1 2 5 3 10 7 28 38 162 41 178 2
10 4 20 5 22 3 3 5 9 15 62 11 58 10 52 18 75 3 11 9 32 12 48 14 70 17 85 27
122 5 22 12 51 14 65 3 14 7 31 10 39 2 8 14 55 25 105 11 50 22 98 24 106 2
8 13 56 25 105 12 50 23 98 25 108 2 10 7 27 10 37 3 10 8 29 10 42 3 13 10
46 17 73 7 28 11 54 10 58 -1 4 2 16 7 25 5 9 11 31 14 47 5 29 42 188 53 230
3 11 7 34 10 50 3 17 12 57 21 90 8 33 17 70 19 83 6 34 12 63 23 107 5 22 12
51 15 65 26 142 57 236 85 257 41 32 99 35 835 39 719 4 895 7 1136 19 63 4
147 8 185 10 39 2 70 4 70 5 0 1 18 3 40 5 81 6 150 14 165 19 8 2 33 7 55 10
22 3 63 10 90 16 63 15 83 19 117 25 15 3 37 9 50 14 13 5 25 9 28 8 8 0 184
53 205 63 20 8 46 17 55 18 31 4 403 181 408 194 2 4 8 8 13 8 15 0 280 167
299 189 3 4 23 19 45 36 22 16 45 34 52 40 6 5 30 26 54 45 224 184 453 456
581 690 48 88 72 134 73 140 1 3 12 28 24 55 42 90 50 110 79 201 51 156 76
249 89 329 2 17 6 41 9 55 3 14 7 43 10 65 2 22 7 45 9 52 2 7 7 63 12 125 15
230 6 504 -22 698 -4 25 -8 54 -10 66 -5 39 -54 219 -80 293 -44 130 -117 281
-186 385 -21 32 -39 62 -39 66 0 5 -3 10 -7 12 -5 2 -20 19 -35 39 -48 64 -72
92 -158 178 -73 74 -106 104 -200 184 -93 78 -377 240 -570 325 -50 22 -313
112 -345 118 -53 10 -66 13 -75 19 -5 3 -22 8 -37 10 -16 2 -58 11 -94 19 -36
9 -81 18 -100 20 -19 3 -50 7 -69 11 -19 3 -53 9 -75 11 -22 3 -51 7 -65 8
-37 5 -167 18 -230 22 -30 3 -595 6 -1255 9 -660 2 -1220 4 -1245 5 -25 0 -93
-1 -153 -2 -59 -2 -107 -1 -107 2 0 5 -309 8 -314 3z m1669 -1446 c116 4 105
4 140 0 17 -1 38 1 47 5 9 5 19 5 21 1 4 -7 101 -9 117 -3 3 2 9 2 14 1 33 -7
76 -6 76 1 0 4 10 4 23 -1 12 -5 31 -5 42 -1 11 4 24 5 29 2 4 -2 97 -6 205
-7 344 -5 521 -23 624 -64 15 -6 27 -9 27 -6 0 7 175 -83 205 -106 113 -89
221 -229 260 -339 1 -3 5 -12 8 -20 13 -32 47 -147 53 -180 18 -105 20 -134
18 -230 -2 -128 -8 -176 -34 -266 -28 -95 -33 -109 -51 -149 -5 -11 -13 -31
-19 -45 -5 -14 -16 -34 -22 -44 -7 -11 -27 -43 -44 -71 -18 -28 -39 -57 -48
-64 -9 -7 -16 -18 -16 -23 0 -12 -157 -168 -170 -168 -5 0 -10 -4 -10 -8 0
-12 -137 -106 -206 -140 -106 -54 -221 -95 -299 -108 -16 -3 -41 -7 -55 -9
-106 -18 -1523 -29 -1573 -12 -19 6 -26 14 -23 26 3 9 12 45 20 81 8 36 25
106 37 155 12 50 23 104 26 120 3 17 9 38 14 48 5 9 8 17 5 17 -3 0 0 15 5 33
5 17 12 48 15 67 3 19 8 38 10 41 3 6 14 57 19 94 2 11 4 20 5 20 2 0 10 33
15 60 2 11 4 20 5 20 2 0 5 13 13 55 4 19 51 222 93 403 2 9 6 25 8 36 2 10 9
35 14 55 6 20 8 36 6 36 -3 0 0 8 5 18 5 9 11 31 14 47 8 47 33 159 67 300 18
72 34 141 36 154 18 93 70 179 101 167 7 -3 15 0 19 6 4 5 9 6 13 2 3 -5 47
-8 96 -7z"/>
</g>
</svg>
